<svg 
class="hamburger-logo"
xmlns="http://www.w3.org/2000/svg" width="412" height="156" fill="none" viewBox="0 0 412 156">
  <path fill="#0094FF" d="M27.955 69.672c-7.872 0-14.336-1.856-19.392-5.568C3.507 60.328.787 54.952.403 47.976h20.064c.192 2.368.896 4.096 2.112 5.184 1.216 1.088 2.784 1.632 4.704 1.632 1.728 0 3.136-.416 4.224-1.248 1.152-.896 1.728-2.112 1.728-3.648 0-1.984-.928-3.52-2.784-4.608-1.856-1.088-4.864-2.304-9.024-3.648-4.416-1.472-8-2.88-10.752-4.224-2.688-1.408-5.056-3.424-7.104-6.048C1.587 28.68.595 25.192.595 20.904c0-4.352 1.088-8.064 3.264-11.136 2.176-3.136 5.184-5.504 9.024-7.104 3.84-1.6 8.192-2.4 13.056-2.4 7.872 0 14.144 1.856 18.816 5.568 4.736 3.648 7.264 8.8 7.584 15.456H31.891c-.064-2.048-.704-3.584-1.92-4.608-1.152-1.024-2.656-1.536-4.512-1.536-1.408 0-2.56.416-3.456 1.248-.896.832-1.344 2.016-1.344 3.552 0 1.28.48 2.4 1.44 3.36 1.024.896 2.272 1.696 3.744 2.4 1.472.64 3.648 1.472 6.528 2.496 4.288 1.472 7.808 2.944 10.56 4.416 2.816 1.408 5.216 3.424 7.2 6.048 2.048 2.56 3.072 5.824 3.072 9.792 0 4.032-1.024 7.648-3.072 10.848-1.984 3.2-4.896 5.728-8.736 7.584-3.776 1.856-8.256 2.784-13.44 2.784ZM75.486 1.32V69H56.67V1.32h18.816Zm84.444 0V69h-18.816V31.656L128.346 69h-15.744L99.738 31.368V69H80.922V1.32h22.752l16.992 43.968L137.274 1.32h22.656Zm48.63 22.272c-1.088-1.792-2.592-3.168-4.512-4.128-1.856-.96-4.064-1.44-6.624-1.44-4.736 0-8.48 1.536-11.232 4.608-2.688 3.072-4.032 7.2-4.032 12.384 0 5.824 1.44 10.272 4.32 13.344 2.944 3.008 7.2 4.512 12.768 4.512 6.592 0 11.296-2.976 14.112-8.928h-18.912V30.408h35.136v18.24c-1.472 3.584-3.648 6.944-6.528 10.08-2.816 3.136-6.4 5.728-10.752 7.776-4.352 1.984-9.312 2.976-14.88 2.976-6.784 0-12.8-1.44-18.048-4.32-5.184-2.944-9.216-7.008-12.096-12.192-2.816-5.248-4.224-11.232-4.224-17.952 0-6.656 1.408-12.576 4.224-17.76 2.88-5.248 6.912-9.312 12.096-12.192C184.56 2.12 190.544.648 197.328.648c8.512 0 15.552 2.048 21.12 6.144 5.568 4.096 9.024 9.696 10.368 16.8H208.56ZM251.169 1.32v39.264c0 3.648.832 6.464 2.496 8.448 1.728 1.984 4.32 2.976 7.776 2.976 3.456 0 6.048-.992 7.776-2.976 1.792-2.048 2.688-4.864 2.688-8.448V1.32h18.816v39.264c0 6.208-1.312 11.52-3.936 15.936-2.624 4.352-6.208 7.648-10.752 9.888-4.48 2.176-9.472 3.264-14.976 3.264-5.504 0-10.432-1.088-14.784-3.264-4.288-2.24-7.68-5.536-10.176-9.888-2.432-4.352-3.648-9.664-3.648-15.936V1.32h18.72ZM330.072 69l-13.44-24.96h-2.016V69H295.8V1.32h29.664c5.44 0 10.048.96 13.824 2.88 3.776 1.856 6.624 4.448 8.544 7.776 1.92 3.264 2.88 6.944 2.88 11.04 0 4.608-1.28 8.672-3.84 12.192-2.496 3.456-6.176 5.92-11.04 7.392L351.096 69h-21.024Zm-15.456-37.824h9.312c2.56 0 4.48-.608 5.76-1.824 1.28-1.216 1.92-2.976 1.92-5.28 0-2.176-.672-3.872-2.016-5.088-1.28-1.28-3.168-1.92-5.664-1.92h-9.312v14.112ZM372.421 1.32v39.264c0 3.648.832 6.464 2.496 8.448 1.728 1.984 4.32 2.976 7.776 2.976 3.456 0 6.048-.992 7.776-2.976 1.792-2.048 2.688-4.864 2.688-8.448V1.32h18.816v39.264c0 6.208-1.312 11.52-3.936 15.936-2.624 4.352-6.208 7.648-10.752 9.888-4.48 2.176-9.472 3.264-14.976 3.264-5.504 0-10.432-1.088-14.784-3.264-4.288-2.24-7.68-5.536-10.176-9.888-2.432-4.352-3.648-9.664-3.648-15.936V1.32h18.72Z"/>
  <path fill="#07FF02" d="M47.07 155.768c-3.328 0-6.016-.896-8.064-2.688-1.984-1.856-2.976-4.192-2.976-7.008s.992-5.152 2.976-7.008c2.048-1.856 4.736-2.784 8.064-2.784 3.264 0 5.888.928 7.872 2.784 2.048 1.856 3.072 4.192 3.072 7.008 0 2.752-1.024 5.056-3.072 6.912-1.984 1.856-4.608 2.784-7.872 2.784Z"/>
  <path fill="#2400FF" d="M93.993 155.672c-6.336 0-12.16-1.472-17.472-4.416-5.312-3.008-9.536-7.136-12.672-12.384-3.072-5.312-4.608-11.296-4.608-17.952 0-6.656 1.536-12.608 4.608-17.856 3.136-5.312 7.36-9.44 12.672-12.384 5.312-2.944 11.136-4.416 17.472-4.416 6.4 0 12.224 1.472 17.472 4.416 5.312 2.944 9.504 7.072 12.576 12.384 3.072 5.248 4.608 11.2 4.608 17.856 0 6.656-1.536 12.64-4.608 17.952-3.072 5.248-7.264 9.376-12.576 12.384-5.312 2.944-11.136 4.416-17.472 4.416Zm0-17.472c4.8 0 8.576-1.568 11.328-4.704 2.816-3.136 4.224-7.328 4.224-12.576 0-5.376-1.408-9.6-4.224-12.672-2.752-3.136-6.528-4.704-11.328-4.704-4.864 0-8.672 1.568-11.424 4.704-2.752 3.072-4.128 7.296-4.128 12.672 0 5.312 1.376 9.536 4.128 12.672 2.752 3.072 6.56 4.608 11.424 4.608ZM194.516 155H175.7l-25.056-37.824V155h-18.816V87.32h18.816l25.056 38.304V87.32h18.816V155Zm24.254-14.4h21.024V155h-39.84V87.32h18.816v53.28Zm41.876-53.28V155H241.83V87.32h18.816ZM328.77 155h-18.816l-25.056-37.824V155h-18.816V87.32h18.816l25.056 38.304V87.32h18.816V155Zm24.254-52.608v11.04h21.6v14.304h-21.6v12.192h24.48V155h-43.296V87.32h43.296v15.072h-24.48Z"/>
</svg>
