<svg xmlns="http://www.w3.org/2000/svg" width="379" height="36" fill="none" viewBox="0 0 379 36">
  <path fill="#0094FF" d="M14.585 35.336c-3.936 0-7.168-.928-9.696-2.784C2.36 30.664 1 27.976.809 24.488H10.84c.096 1.184.448 2.048 1.056 2.592.608.544 1.392.816 2.352.816.864 0 1.568-.208 2.112-.624.576-.448.864-1.056.864-1.824 0-.992-.464-1.76-1.392-2.304-.928-.544-2.432-1.152-4.512-1.824-2.208-.736-4-1.44-5.376-2.112-1.344-.704-2.528-1.712-3.552-3.024C1.4 14.84.905 13.096.905 10.952c0-2.176.544-4.032 1.632-5.568 1.088-1.568 2.592-2.752 4.512-3.552 1.92-.8 4.096-1.2 6.528-1.2 3.936 0 7.072.928 9.408 2.784 2.368 1.824 3.632 4.4 3.792 7.728H16.553c-.032-1.024-.352-1.792-.96-2.304-.576-.512-1.328-.768-2.256-.768-.704 0-1.28.208-1.728.624-.448.416-.672 1.008-.672 1.776 0 .64.24 1.2.72 1.68.512.448 1.136.848 1.872 1.2.736.32 1.824.736 3.264 1.248 2.144.736 3.904 1.472 5.28 2.208 1.408.704 2.608 1.712 3.6 3.024 1.024 1.28 1.536 2.912 1.536 4.896 0 2.016-.512 3.824-1.536 5.424-.992 1.6-2.448 2.864-4.368 3.792-1.888.928-4.128 1.392-6.72 1.392ZM38.35 1.16V35h-9.408V1.16h9.408Zm42.222 0V35h-9.408V16.328L64.78 35h-7.872l-6.432-18.816V35h-9.408V1.16h11.376l8.496 21.984L69.244 1.16h11.328Zm24.315 11.136a5.413 5.413 0 0 0-2.256-2.064c-.928-.48-2.032-.72-3.312-.72-2.368 0-4.24.768-5.616 2.304-1.344 1.536-2.016 3.6-2.016 6.192 0 2.912.72 5.136 2.16 6.672 1.472 1.504 3.6 2.256 6.384 2.256 3.296 0 5.648-1.488 7.056-4.464h-9.456v-6.768H115.4v9.12c-.736 1.792-1.824 3.472-3.264 5.04-1.408 1.568-3.2 2.864-5.376 3.888-2.176.992-4.656 1.488-7.44 1.488-3.392 0-6.4-.72-9.024-2.16-2.592-1.472-4.608-3.504-6.048-6.096-1.408-2.624-2.112-5.616-2.112-8.976 0-3.328.704-6.288 2.112-8.88 1.44-2.624 3.456-4.656 6.048-6.096C92.887 1.56 95.88.824 99.271.824c4.256 0 7.776 1.024 10.56 3.072 2.784 2.048 4.512 4.848 5.184 8.4h-10.128ZM126.192 1.16v19.632c0 1.824.416 3.232 1.248 4.224.864.992 2.16 1.488 3.888 1.488 1.728 0 3.024-.496 3.888-1.488.896-1.024 1.344-2.432 1.344-4.224V1.16h9.408v19.632c0 3.104-.656 5.76-1.968 7.968a12.727 12.727 0 0 1-5.376 4.944c-2.24 1.088-4.736 1.632-7.488 1.632-2.752 0-5.216-.544-7.392-1.632-2.144-1.12-3.84-2.768-5.088-4.944-1.216-2.176-1.824-4.832-1.824-7.968V1.16h9.36ZM165.643 35l-6.72-12.48h-1.008V35h-9.408V1.16h14.832c2.72 0 5.024.48 6.912 1.44 1.888.928 3.312 2.224 4.272 3.888.96 1.632 1.44 3.472 1.44 5.52 0 2.304-.64 4.336-1.92 6.096-1.248 1.728-3.088 2.96-5.52 3.696l7.632 13.2h-10.512Zm-7.728-18.912h4.656c1.28 0 2.24-.304 2.88-.912.64-.608.96-1.488.96-2.64 0-1.088-.336-1.936-1.008-2.544-.64-.64-1.584-.96-2.832-.96h-4.656v7.056ZM186.818 1.16v19.632c0 1.824.416 3.232 1.248 4.224.864.992 2.16 1.488 3.888 1.488 1.728 0 3.024-.496 3.888-1.488.896-1.024 1.344-2.432 1.344-4.224V1.16h9.408v19.632c0 3.104-.656 5.76-1.968 7.968a12.727 12.727 0 0 1-5.376 4.944c-2.24 1.088-4.736 1.632-7.488 1.632-2.752 0-5.216-.544-7.392-1.632-2.144-1.12-3.84-2.768-5.088-4.944-1.216-2.176-1.824-4.832-1.824-7.968V1.16h9.36Z"/>
  <path fill="#07FF02" d="M213.694 35.384c-1.664 0-3.008-.448-4.032-1.344-.992-.928-1.488-2.096-1.488-3.504s.496-2.576 1.488-3.504c1.024-.928 2.368-1.392 4.032-1.392 1.632 0 2.944.464 3.936 1.392 1.024.928 1.536 2.096 1.536 3.504 0 1.376-.512 2.528-1.536 3.456-.992.928-2.304 1.392-3.936 1.392Z"/>
  <path fill="#2400FF" d="M237.155 35.336c-3.168 0-6.08-.736-8.736-2.208a17.048 17.048 0 0 1-6.336-6.192c-1.536-2.656-2.304-5.648-2.304-8.976 0-3.328.768-6.304 2.304-8.928 1.568-2.656 3.68-4.72 6.336-6.192 2.656-1.472 5.568-2.208 8.736-2.208 3.2 0 6.112.736 8.736 2.208 2.656 1.472 4.752 3.536 6.288 6.192 1.536 2.624 2.304 5.6 2.304 8.928 0 3.328-.768 6.32-2.304 8.976a16.687 16.687 0 0 1-6.288 6.192c-2.656 1.472-5.568 2.208-8.736 2.208Zm0-8.736c2.4 0 4.288-.784 5.664-2.352 1.408-1.568 2.112-3.664 2.112-6.288 0-2.688-.704-4.8-2.112-6.336-1.376-1.568-3.264-2.352-5.664-2.352-2.432 0-4.336.784-5.712 2.352-1.376 1.536-2.064 3.648-2.064 6.336 0 2.656.688 4.768 2.064 6.336 1.376 1.536 3.28 2.304 5.712 2.304Zm50.261 8.4h-9.408L265.48 16.088V35h-9.408V1.16h9.408l12.528 19.152V1.16h9.408V35Zm12.128-7.2h10.512V35h-19.92V1.16h9.408V27.8Zm20.938-26.64V35h-9.408V1.16h9.408ZM354.543 35h-9.408l-12.528-18.912V35h-9.408V1.16h9.408l12.528 19.152V1.16h9.408V35ZM366.67 8.696v5.52h10.8v7.152h-10.8v6.096h12.24V35h-21.648V1.16h21.648v7.536h-12.24Z"/>
</svg>
